<svg xmlns="http://www.w3.org/2000/svg" xmlns:xlink="http://www.w3.org/1999/xlink" version="1.1" x="0px" y="0px" viewBox="0 0 100 125" style="enable-background:new 0 0 100 100;" xml:space="preserve"><path d="M92.5,45h-65c-1.4,0-2.5,1.1-2.5,2.5s1.1,2.5,2.5,2.5h65c1.4,0,2.5-1.1,2.5-2.5S93.9,45,92.5,45z"/><path d="M27.5,65h55c1.4,0,2.5-1.1,2.5-2.5S83.9,60,82.5,60h-55c-1.4,0-2.5,1.1-2.5,2.5S26.1,65,27.5,65z"/><path d="M92.5,75h-65c-1.4,0-2.5,1.1-2.5,2.5s1.1,2.5,2.5,2.5h65c1.4,0,2.5-1.1,2.5-2.5S93.9,75,92.5,75z"/><path d="M82.5,90h-55c-1.4,0-2.5,1.1-2.5,2.5s1.1,2.5,2.5,2.5h55c1.4,0,2.5-1.1,2.5-2.5S83.9,90,82.5,90z"/><path d="M92.5,10h-65c-1.4,0-2.5,1.1-2.5,2.5v20c0,1.4,1.1,2.5,2.5,2.5h65c1.4,0,2.5-1.1,2.5-2.5v-20C95,11.1,93.9,10,92.5,10z   M90,30H30V15h60V30z"/><path d="M5.7,34.3C6.2,34.8,6.9,35,7.5,35s1.3-0.2,1.8-0.7l10-10c1-1,1-2.6,0-3.5l-10-10c-1-1-2.6-1-3.5,0c-1,1-1,2.6,0,3.5l8.2,8.2  l-8.2,8.2C4.8,31.7,4.8,33.3,5.7,34.3z"/><text x="0" y="115" fill="#000000" font-size="5px" font-weight="bold" font-family="'Helvetica Neue', Helvetica, Arial-Unicode, Arial, Sans-serif">Created by Arthur Shlain</text><text x="0" y="120" fill="#000000" font-size="5px" font-weight="bold" font-family="'Helvetica Neue', Helvetica, Arial-Unicode, Arial, Sans-serif">from the Noun Project</text></svg>